<svg width="22" height="18" viewBox="0 0 22 18" fill="none" xmlns="http://www.w3.org/2000/svg">
<path d="M17.8659 7.33129L17.866 7.33131C18.9611 7.70178 19.7774 8.18924 20.3199 8.82284C20.8648 9.45914 21.1249 10.2327 21.1249 11.1562C21.1249 12.3645 20.4034 13.5594 19.1249 14.5442V16.7343V16.7344H18.9999C19 16.7738 18.9917 16.8127 18.9758 16.8482C18.9599 16.8838 18.9367 16.9151 18.9079 16.94L17.8659 7.33129ZM17.8659 7.33129C17.7693 7.29864 17.6643 7.30831 17.575 7.35742M17.8659 7.33129L17.575 7.35742M17.575 7.35742C17.4861 7.40634 17.4212 7.48947 17.3922 7.58654M17.575 7.35742L17.3922 7.58654M17.3922 7.58654C17.3632 7.68349 17.3714 7.7887 17.4158 7.87968M17.3922 7.58654L17.4158 7.87968M17.4158 7.87968C17.4602 7.97082 17.538 8.04184 17.6343 8.0744L17.4158 7.87968ZM18.8416 17.1134C18.8966 17.0989 18.9472 17.0717 18.99 17.0343L17.6344 8.07443C18.6006 8.40148 19.2842 8.80419 19.7262 9.30477C20.1653 9.802 20.3749 10.4059 20.3749 11.1562C20.3749 11.8099 20.0943 12.3969 19.7195 12.889C19.3448 13.3809 18.8823 13.7697 18.5346 14.024C18.4845 14.0606 18.4443 14.109 18.4167 14.1646C18.3892 14.2202 18.3749 14.2816 18.3749 14.3437V14.3438V16.1845C17.8634 15.9478 17.4052 15.5952 17.0328 15.1497L17.0324 15.1492C16.9897 15.0987 16.9349 15.06 16.8728 15.0376L16.8303 15.1551L16.8728 15.0376C16.8105 15.0151 16.7436 15.0099 16.6787 15.0228L16.6778 15.023C16.5312 15.053 16.3824 15.0954 16.237 15.1367L16.2332 15.1378L16.2331 15.1378C15.974 15.2118 15.7286 15.2812 15.4999 15.2812C14.2408 15.2812 13.3697 14.9956 12.4749 14.2968C12.3946 14.2341 12.2928 14.2069 12.1921 14.2232C12.0915 14.2395 12.0032 14.2972 11.9454 14.3807C11.8878 14.464 11.8643 14.5669 11.8786 14.6671C11.893 14.7674 11.9445 14.8595 12.0244 14.9219L12.0245 14.922C13.062 15.7323 14.0742 16.0625 15.4999 16.0625C15.8337 16.0625 16.1445 15.9736 16.4267 15.8928L16.4318 15.8914L16.4325 15.8912C16.4964 15.8725 16.559 15.8544 16.6205 15.8379C17.5594 16.8582 18.5993 17.1011 18.673 17.1167C18.7287 17.1291 18.7864 17.1279 18.8416 17.1134Z" fill="#3FA7F9" stroke="#3FA7F9" stroke-width="0.25" stroke-linejoin="round"/>
<path d="M16.5 7.17187C16.5 3.08337 12.991 0 8.3385 0C3.6625 0 0 3.15084 0 7.17294C0 9.58428 1.6055 11.3119 3 12.3574V15.8828C3.00026 15.927 3.01088 15.9705 3.0309 16.0093C3.05092 16.0481 3.07971 16.081 3.11468 16.105C3.14965 16.1291 3.18969 16.1435 3.23121 16.147C3.27273 16.1505 3.31441 16.1429 3.3525 16.125C3.4255 16.0905 5.132 15.2665 6.592 13.5702C7.2245 13.6951 7.94 13.8152 8.589 13.8152C13.3205 13.8152 16.5 11.1451 16.5 7.17187Z" fill="#2F3C8F"/>
</svg>
