<svg width="17" height="18" viewBox="0 0 17 18" fill="none" xmlns="http://www.w3.org/2000/svg">
<path d="M11.25 12.5V16.25H1.25V1.25H7.5V0H1.25C0.918479 0 0.600537 0.131696 0.366116 0.366116C0.131696 0.600537 0 0.918479 0 1.25V16.25C0 16.5815 0.131696 16.8995 0.366116 17.1339C0.600537 17.3683 0.918479 17.5 1.25 17.5H11.25C11.5815 17.5 11.8995 17.3683 12.1339 17.1339C12.3683 16.8995 12.5 16.5815 12.5 16.25V12.5H11.25Z" fill="#2F3C8F"/>
<path d="M15.9625 2.35L13.9 0.287497C13.7131 0.104271 13.4618 0.00164032 13.2 0.00164032C12.9382 0.00164032 12.6869 0.104271 12.5 0.287497L3.75 9.0375V12.5H7.20625L15.9563 3.75C16.1395 3.56307 16.2421 3.31175 16.2421 3.05C16.2421 2.78824 16.1395 2.53693 15.9563 2.35H15.9625ZM6.6875 11.25H5V9.5625L10.9 3.65625L12.5938 5.35L6.6875 11.25ZM13.475 4.46875L11.7812 2.775L13.2 1.35625L14.8938 3.05L13.475 4.46875Z" fill="#2F3C8F"/>
</svg>
